PathFileType	4	(X/Y/Z)	D:\TRACE\spot_10-12-23\spot_arm_body_motion_2_1-platform.trc
DataRate	CameraRate	NumFrames	NumMarkers	Units	OrigDataRate	OrigDataStartFrame	OrigNumFrames
100.00	100.00	      65	5	mm	100.00	4376	      7000
Frame#	Time	Left_Front			Right_Front			Left_Aft			Right_Aft			Post			
		X1	Y1	Z1	X2	Y2	Z2	X3	Y3	Z3	X4	Y4	Z4	X5	Y5	Z5	

4376	43.750	-833.54675	-33.74413	-661.25433	734.14496	-35.67289	-637.05737	-764.42615	42.47112	474.52408	642.82391	46.14729	576.50787	-44.61904	671.03967	-1022.81488	
4377	43.760	-833.47748	-34.61016	-661.23706	734.14642	-36.79833	-637.12720	-764.39709	42.94561	474.34152	642.87103	46.88797	576.25922	-44.43763	669.25226	-1023.84418	
4378	43.770	-833.01501	-35.45654	-661.60284	734.26617	-37.66246	-637.33344	-764.18787	43.49090	474.06198	642.78314	47.43460	576.15863	-44.19978	667.90485	-1025.44592	
4379	43.780	-832.72931	-36.11892	-661.88104	734.55200	-38.29746	-637.53827	-763.71875	44.18142	473.71417	643.29761	48.41961	575.96051	-43.98620	666.85858	-1026.58044	
4380	43.790	-832.20239	-37.11027	-662.05402	734.91541	-38.93130	-637.60565	-763.35431	44.86845	473.47314	643.73779	49.22769	575.64624	-43.59556	665.50488	-1027.83887	
4381	43.800	-832.00214	-38.16784	-661.90704	735.28278	-39.84290	-637.68121	-762.94165	45.48335	473.15198	644.09668	49.79120	575.39880	-43.13229	664.12207	-1028.81323	
4382	43.810	-831.79193	-39.17205	-662.06537	735.37225	-41.13937	-637.75110	-762.60767	45.83723	472.88275	644.28278	50.20472	575.23560	-42.82188	662.62360	-1029.65186	
4383	43.820	-831.45282	-40.11484	-662.34064	735.85681	-42.03688	-637.97693	-762.40839	46.26878	472.70428	644.46692	50.86167	574.99396	-42.61835	661.11346	-1030.69055	
4384	43.830	-831.29443	-40.54725	-662.54352	736.27423	-42.73962	-638.09070	-762.04181	47.00819	472.29553	644.64740	51.43883	574.70325	-42.16060	660.00433	-1031.67627	
4385	43.840	-830.76904	-41.24232	-662.80109	736.72595	-43.22262	-638.29395	-761.70984	47.57390	472.05948	645.28876	52.23816	574.48480	-41.81287	658.94543	-1032.47021	
4386	43.850	-830.24310	-42.19173	-662.99146	737.25311	-44.00149	-638.39960	-761.18695	48.09484	472.03116	645.69153	52.80793	574.03906	-41.41582	657.71796	-1033.41016	
4387	43.860	-829.86469	-43.05528	-662.91101	737.45520	-44.75912	-638.41565	-760.89459	48.50877	471.92117	646.32385	53.30915	573.73462	-41.21805	656.65082	-1034.14063	
4388	43.870	-829.44678	-43.87789	-662.86359	737.90503	-45.63134	-638.46466	-760.44891	48.82024	471.74722	646.68286	53.75618	573.56836	-40.66709	655.22351	-1034.76868	
4389	43.880	-828.77667	-44.62085	-663.15009	738.31793	-46.36824	-638.57111	-760.01941	49.24575	471.53586	647.17365	54.09967	573.56134	-40.03095	654.36469	-1035.35461	
4390	43.890	-828.48059	-44.88320	-663.32697	738.91058	-46.77823	-638.70844	-759.49646	49.68234	471.34799	647.87384	54.78171	573.32306	-39.71606	653.51697	-1036.19080	
4391	43.900	-827.96045	-45.13724	-663.34039	739.50562	-47.18389	-638.81726	-758.97864	50.15884	471.04440	648.40771	55.28886	573.14667	-39.12865	652.82465	-1036.78833	
4392	43.910	-827.40228	-45.98703	-663.52094	739.85175	-47.58154	-638.86841	-758.52094	50.41167	470.92734	648.84851	55.64948	573.00690	-38.56533	652.06067	-1037.27844	
4393	43.920	-827.05896	-46.83331	-663.30109	740.14441	-47.90113	-638.93182	-757.98309	50.62078	470.89487	649.18408	55.96452	572.92969	-38.01367	651.09070	-1037.76416	
4394	43.930	-826.62573	-47.05859	-663.02948	740.78687	-48.66838	-638.96051	-757.45605	50.70241	470.76434	649.69751	56.03965	572.85547	-37.46645	650.55469	-1038.28113	
4395	43.940	-825.93811	-47.18311	-663.12073	741.29871	-48.92439	-639.06976	-756.96021	50.98666	470.55954	650.39429	56.37576	572.66534	-37.06392	650.16229	-1038.62012	
4396	43.950	-825.20532	-47.44457	-663.46954	742.03027	-49.06752	-639.13049	-756.33081	51.28834	470.46124	651.24915	56.69492	572.75641	-36.25732	649.76624	-1039.14893	
4397	43.960	-824.75415	-47.60286	-663.57916	742.65363	-49.22757	-639.16132	-755.67010	51.56663	470.42917	651.69159	57.00732	572.61902	-35.69547	649.35168	-1039.43982	
4398	43.970	-824.27283	-47.73238	-663.65076	743.17371	-49.51156	-639.12341	-755.13684	51.63165	470.40149	652.11169	57.03439	572.64227	-35.15099	648.84955	-1040.14355	
4399	43.980	-823.48840	-48.18482	-663.41113	743.73517	-50.08142	-639.03906	-754.68604	51.68975	470.33020	652.58398	57.11184	572.60229	-34.95873	648.77295	-1038.94531	
4400	43.990	-822.59314	-48.74051	-663.57758	744.44379	-50.21450	-639.04199	-753.97955	51.71908	470.21426	653.25452	57.14765	572.50476	-34.35917	648.60815	-1039.09937	
4401	44.000	-822.04211	-48.59633	-663.67694	745.19922	-50.11716	-639.07703	-753.19293	51.87915	470.19922	654.14642	57.45877	572.42078	-33.98238	648.41010	-1040.07385	
4402	44.010	-821.67462	-48.31099	-663.57050	745.95398	-50.17543	-639.11572	-752.48468	52.06556	470.19150	654.76532	57.67407	572.45074	-33.16382	648.30017	-1040.19849	
4403	44.020	-821.07581	-48.53116	-663.76965	746.51703	-50.27423	-639.09418	-751.92920	52.18692	470.25986	655.48315	57.65966	572.47833	-32.51895	648.12683	-1040.23938	
4404	44.030	-820.14978	-48.84534	-663.73798	747.11609	-50.40644	-639.14056	-751.51056	51.97285	470.34430	655.99939	57.55356	572.48602	-31.80390	647.81226	-1040.35547	
4405	44.040	-819.31512	-48.91162	-663.45618	747.82892	-50.42561	-639.17401	-750.48297	51.95591	470.24744	656.70203	57.53708	572.41211	-30.65526	647.59802	-1041.09155	
4406	44.050	-818.70654	-48.76831	-663.35529	748.49268	-50.48046	-639.17389	-749.78674	52.08089	470.28271	657.51935	57.60922	572.33453	-29.96096	647.64551	-1041.09436	
4407	44.060	-818.00781	-48.55227	-663.52905	749.35205	-50.41667	-639.18152	-749.29547	51.97591	470.34274	658.29993	57.66231	572.38849	-29.11377	647.72272	-1041.14600	
4408	44.070	-817.24426	-48.67005	-663.77893	750.33661	-50.29564	-639.16687	-748.13367	52.08185	470.24103	659.05188	57.61057	572.19031	-27.89807	647.85980	-1040.99341	
4409	44.080	-816.37933	-48.73822	-663.66949	750.94342	-50.18763	-639.11414	-747.34338	52.01791	470.23514	659.85834	57.54340	572.29559	-27.82663	647.87262	-1040.90735	
4410	44.090	-815.50549	-48.66366	-663.22583	751.85071	-50.10147	-639.02679	-746.71912	51.86174	470.29434	660.69415	57.40753	572.35248	-27.51362	648.13129	-1040.05994	
4411	44.100	-814.86322	-48.53384	-663.30151	752.60345	-50.02658	-639.03741	-745.77484	51.64626	470.43860	661.42480	57.28872	572.35358	-26.10320	648.26587	-1040.49573	
4412	44.110	-814.05804	-48.20422	-663.57239	753.28790	-49.82937	-639.06458	-744.96936	51.67333	470.45932	662.30383	57.24199	572.53558	-25.08298	648.57385	-1040.24243	
4413	44.120	-813.24213	-47.78793	-663.71295	754.14392	-49.51402	-639.07104	-744.18024	51.63126	470.41754	663.22479	57.09671	572.72888	-24.01412	649.02222	-1039.89417	
4414	44.130	-812.28796	-47.44203	-663.18713	755.21118	-49.16089	-639.02051	-743.22003	51.41356	470.61441	664.06000	56.85846	572.80762	-23.44910	649.47906	-1039.86450	
4415	44.140	-811.39105	-47.33652	-663.52960	755.99744	-48.93081	-638.89978	-742.54736	51.14509	470.71417	664.77740	56.65024	572.84222	-22.41502	649.64728	-1039.32129	
4416	44.150	-810.40833	-46.98267	-663.49426	756.89734	-48.69325	-638.77142	-741.69385	50.82255	470.78220	665.90399	56.24821	573.00128	-21.50179	650.22388	-1038.88831	
4417	44.160	-809.56238	-46.62519	-663.55420	757.69592	-48.27781	-638.70880	-740.55426	50.56563	470.86417	666.56378	56.06589	572.93292	-20.77484	650.80310	-1038.58093	
4418	44.170	-808.97498	-46.08334	-663.30060	758.79218	-47.63995	-638.71680	-739.73401	50.48001	470.96564	667.53937	55.84649	573.17889	-19.73928	651.58325	-1038.24219	
4419	44.180	-807.71783	-45.48373	-662.79633	759.61896	-47.22114	-638.65546	-738.72791	50.12147	471.19360	668.70300	55.48899	573.33844	-18.64174	652.28394	-1037.53284	
4420	44.190	-806.93433	-45.13835	-662.90796	760.47388	-46.71189	-638.63477	-737.80676	49.84752	471.39926	669.56885	55.04332	573.59271	-17.96702	653.18787	-1037.09253	
4421	44.200	-806.03119	-44.48585	-662.81134	761.48621	-46.13443	-638.35040	-736.98474	49.19944	471.56891	670.32507	54.56396	573.88336	-16.96471	653.97845	-1036.60339	
4422	44.210	-804.99005	-43.99434	-662.82501	762.34290	-45.50513	-638.36169	-735.99603	48.81364	471.81683	671.31189	54.09047	573.96875	-16.06774	654.87964	-1035.97302	
4423	44.220	-804.04688	-43.34262	-662.54089	763.52161	-44.84909	-638.18060	-734.99353	48.41861	472.03824	672.37427	53.53803	574.09412	-15.08352	656.05701	-1035.18066	
4424	44.230	-802.92877	-42.64186	-662.40387	764.37140	-44.17590	-638.10034	-733.96124	48.07846	472.25525	673.28040	52.96226	574.21844	-13.88522	657.28735	-1034.29138	
4425	44.240	-801.88501	-41.86523	-662.23987	765.47766	-43.28698	-637.98456	-732.99963	47.45397	472.46207	674.37097	52.36745	574.54504	-13.07382	658.33185	-1033.51611	
4426	44.250	-800.81250	-41.17118	-662.40057	766.26068	-42.70189	-637.95477	-731.94293	46.97017	472.74344	675.33514	51.81598	574.83636	-12.15840	659.58777	-1032.62329	
4427	44.260	-800.01166	-40.35365	-662.14954	767.21222	-41.85527	-637.65857	-731.02887	46.40569	472.92361	676.28406	51.09856	575.06885	-11.04922	660.68024	-1031.68689	
4428	44.270	-798.76080	-39.34710	-662.04462	768.30402	-41.21960	-637.62793	-730.08240	45.89949	473.19803	677.22516	50.59450	575.41821	-10.29921	662.01691	-1030.54297	
4429	44.280	-797.62305	-38.40660	-662.03778	769.35004	-40.51782	-637.51495	-728.89905	45.49407	473.43219	678.45697	49.99758	575.52521	-28.02479	593.60358	-1036.90613	
4430	44.290	-796.69513	-37.66224	-661.92181	770.74359	-39.50755	-637.14258	-728.03027	45.03940	473.50870	679.43915	49.44516	575.79138	-8.94011	664.82721	-1027.82532	
4431	44.300	-795.80481	-37.14442	-661.67615	771.69238	-38.61649	-637.05127	-726.71771	44.32520	473.83752	680.29022	48.67446	576.11566	-7.85420	666.15186	-1026.54602	
4432	44.310	-794.64246	-36.33391	-661.40637	772.85876	-37.49605	-636.82239	-725.97815	43.64711	474.25006	681.47504	47.74561	576.34155	-6.45396	667.40143	-1025.22620	
4433	44.320	-793.44482	-35.38251	-661.34113	773.84131	-36.68789	-636.70319	-724.78314	43.02810	474.39380	682.51013	46.97755	576.62604	-5.47855	668.86816	-1024.03333	
4434	44.330	-792.52643	-34.07616	-661.18707	774.90607	-35.67131	-636.53418	-723.63904	42.27826	474.67447	683.51184	46.19773	576.89917	-4.44398	670.71338	-1022.65497	
4435	44.340	-791.20715	-32.95356	-661.33069	776.10223	-34.58497	-636.20801	-722.47760	41.68354	475.14249	684.70654	45.54130	577.27234	-3.05970	672.51752	-1021.54730	
4436	44.350	-790.15588	-31.92188	-660.72864	777.08051	-33.30736	-636.18353	-721.50745	40.95658	475.43442	685.77063	44.79921	577.48718	-1.76173	673.90021	-1020.52753	
4437	44.360	-789.10406	-31.11495	-660.51855	777.91174	-32.45417	-635.97241	-720.32843	40.17592	475.78568	686.74713	43.76338	577.82813	-0.77002	675.40955	-1019.15503	
4438	44.370	-788.21771	-29.80736	-660.41022	779.25677	-31.31326	-635.67004	-719.58972	39.44371	476.15222	688.06183	42.78027	578.33630	0.22454	677.23511	-1017.46887	
4439	44.380	-787.11194	-28.47389	-660.22778	780.37482	-30.27348	-635.57300	-718.22253	38.65738	476.41418	689.09210	42.08871	578.61334	1.49936	679.04016	-1015.90656	
4440	44.390	-785.67578	-27.39900	-659.85785	781.47345	-29.08137	-635.21869	-717.28894	37.86926	476.74286	690.22968	41.23283	579.02893	2.53980	680.89325	-1014.21185	
